<?xml version="1.0" encoding="UTF-8"?>
<svg id="GETWETLOGO" xmlns="http://www.w3.org/2000/svg" viewBox="0 0 344.03 100.88">
  <defs>
    <style>
      .cls-1 {
        fill: #ea7bac;
      }

      .cls-2 {
        fill: #506293;
      }
    </style>
  </defs>
  <g>
    <path class="cls-2" d="M5.25,93.33c-3.5-5.03-5.25-12.66-5.25-22.89V27.79C0,18.64,2.04,11.72,6.11,7.03,10.18,2.34,16.26,0,24.33,0c6.53,0,11.61,1.31,15.22,3.92,3.61,2.61,6.11,6.42,7.49,11.41,1.38,5,2.08,11.41,2.08,19.25h-19.37v-8.88c0-2.38-.33-4.23-.98-5.53-.65-1.31-1.83-1.96-3.52-1.96-3.77,0-5.65,2.46-5.65,7.38v47.96c0,3,.38,5.27,1.15,6.8.77,1.54,2.11,2.31,4.04,2.31s3.27-.77,4.04-2.31c.77-1.54,1.15-3.8,1.15-6.8v-14.18h-5.3v-17.06h24.21v57.65h-7.95l-3.34-8.3c-3.54,6.15-8.99,9.22-16.37,9.22s-12.47-2.52-15.97-7.55Z"/>
    <path class="cls-2" d="M56.72,99.96V.92h39.66v19.14h-19.48v19.25h18.68v18.68h-18.68v22.71h20.75v19.25h-40.93Z"/>
    <path class="cls-2" d="M112.75,99.96V19.95h-11.76V.92h43.35v19.02h-11.76v80.01h-19.83Z"/>
    <path class="cls-2" d="M157.6,99.96L146.99.92h19.37l5.53,62.49L177.43.92h18.45l5.3,62.49L206.48.92h19.6l-10.84,99.04h-23.75l-4.96-47.73-4.73,47.73h-24.21Z"/>
    <path class="cls-2" d="M231.96,99.96V.92h39.66v19.14h-19.48v19.25h18.68v18.68h-18.68v22.71h20.75v19.25h-40.93Z"/>
    <path class="cls-2" d="M287.99,99.96V19.95h-11.76V.92h43.35v19.02h-11.76v80.01h-19.83Z"/>
    <path class="cls-2" d="M327.77,72.98l-3.92-72.06h20.18l-4.04,72.06h-12.22ZM323.85,99.96v-16.83h20.18v16.83h-20.18Z"/>
  </g>
  <g>
    <path class="cls-1" d="M219.75,63.09l-1.53-2.83s-15.08,4.14-31.69,4.14-31.69-4.14-31.69-4.14l-1.53,2.83c13.58,0,25.09,18.22,29.14,36.69,1.34.12,2.7.18,4.08.18s2.74-.06,4.08-.18c4.05-18.47,15.57-36.69,29.14-36.69Z"/>
    <path class="cls-1" d="M154.4,60.32c.12,2.73-.13,5.42-.72,8.09-.17.66-.34,1.33-.61,2-.29.75-.64,1.29-1,1.9-.38.6-.77,1.19-1.39,1.72-.16.13-.33.26-.56.37-.14.11-.75.2-.8.14-.75-.15-.91-.54-1.16-.84-.76-1.32-1.02-2.62-1.25-4.01-.16-1.53.61-2.87,1.28-4.04,1.59-2.27,3.68-4.06,6.07-5.41l.13-.08v.15ZM154.1,60.71c-1.52,2.08-3.18,3.94-4.78,5.8-.44.47-.88.95-1.24,1.47-.37.52-.66,1.05-.63,1.68.06,1.26.6,2.61,1.42,3.46.17.19.52.33.45.26.29-.03.01-.04.16-.1.07-.05.15-.14.23-.24.33-.41.66-.97.94-1.53.28-.56.58-1.19.72-1.71.18-.59.36-1.22.52-1.85.66-2.39,1.33-4.83,2.19-7.25Z"/>
    <path class="cls-1" d="M154.39,60.27c1.53,2.07,2.74,4.3,3.72,6.66.22.6.45,1.2.62,1.83.18.63.31,1.35.38,1.97.08.65.14,1.3.1,2-.03.36-.05.7-.26,1.16-.35.81-1.18.63-1.49.47-.7-.35-1.11-.85-1.58-1.31-.45-.47-.88-.95-1.28-1.46-.89-1.07-1.2-2.46-1.42-3.72-.24-2.6.15-5.15,1.04-7.58l.06-.16.1.14ZM154.45,61.13c.19,2.27.19,4.49.17,6.67-.03,1.2-.22,2.49.45,3.47.65.98,1.71,1.92,2.72,2.21.11.02.22.01.19-.02-.04.01.07-.04-.09.04l.09-.08c-.08,0-.12.11-.1.03.01-.14,0-.43-.03-.7-.07-.56-.18-1.16-.31-1.75-.13-.62-.28-1.14-.49-1.7l-.63-1.72c-.73-2.09-1.42-4.23-1.95-6.45Z"/>
    <path class="cls-1" d="M154.4,60.32c-.39,3.68-.71,7.36-.94,11.03-.11,1.84-.03,3.68-.2,5.48-.13,1.82-.36,3.6-.31,5.46l-.16.05c-.99-1.71-1.15-3.69-1.24-5.55-.08-1.89.29-3.74.55-5.58.53-3.68,1.25-7.32,2.13-10.93l.17.03Z"/>
    <path class="cls-1" d="M154.4,60.31c.04,4.87.17,9.73.46,14.57.17,2.42.48,4.82.63,7.21.17,2.4.25,4.78.78,7.16l-.15.07c-.75-1.02-1.18-2.23-1.55-3.41-.37-1.19-.59-2.42-.79-3.63-.37-2.44-.31-4.91-.29-7.35.01-4.89.28-9.76.74-14.62h.17Z"/>
    <path class="cls-1" d="M218.42,60.32c.12,2.73-.13,5.42-.71,8.09-.17.66-.34,1.33-.61,2-.29.75-.63,1.29-1,1.9-.38.6-.78,1.19-1.39,1.72-.16.13-.33.26-.56.37-.14.11-.75.2-.8.15-.75-.15-.91-.53-1.16-.84-.76-1.32-1.02-2.62-1.25-4.01-.16-1.53.6-2.87,1.28-4.05,1.59-2.27,3.68-4.06,6.06-5.41l.14-.08v.15ZM218.12,60.71c-1.52,2.08-3.18,3.94-4.77,5.8-.44.47-.88.95-1.24,1.47-.37.52-.66,1.06-.62,1.68.06,1.25.6,2.61,1.42,3.46.17.19.52.32.45.26.29-.03.01-.04.16-.1.07-.05.15-.14.23-.24.33-.41.66-.97.94-1.53.28-.56.58-1.19.72-1.71.18-.59.36-1.22.52-1.85.66-2.38,1.32-4.83,2.19-7.25Z"/>
    <path class="cls-1" d="M218.41,60.27c1.53,2.07,2.74,4.3,3.72,6.66.23.6.46,1.2.62,1.83.18.63.32,1.35.38,1.97.08.65.14,1.3.09,2-.03.36-.05.7-.26,1.16-.35.81-1.18.64-1.48.47-.7-.35-1.11-.85-1.58-1.31-.45-.47-.88-.94-1.27-1.46-.89-1.07-1.2-2.46-1.42-3.72-.25-2.6.14-5.15,1.04-7.58l.06-.16.1.14ZM218.46,61.13c.19,2.27.19,4.49.17,6.67-.03,1.2-.22,2.49.45,3.47.65.98,1.71,1.92,2.72,2.21.11.02.22.01.2-.02-.04.01.07-.04-.09.04l.09-.08c-.08,0-.12.1-.1.03.01-.14,0-.43-.03-.7-.07-.56-.18-1.16-.31-1.75-.13-.63-.28-1.13-.49-1.7l-.63-1.72c-.73-2.09-1.42-4.23-1.95-6.45Z"/>
    <path class="cls-1" d="M218.42,60.32c-.39,3.68-.71,7.36-.94,11.03-.11,1.84-.03,3.68-.2,5.48-.13,1.82-.36,3.6-.31,5.46l-.16.05c-.99-1.71-1.15-3.69-1.24-5.55-.08-1.89.29-3.74.54-5.58.53-3.68,1.25-7.32,2.13-10.93l.17.03Z"/>
    <path class="cls-1" d="M218.42,60.31c.04,4.87.17,9.73.46,14.57.17,2.42.48,4.82.63,7.21.17,2.4.25,4.78.79,7.16l-.15.07c-.75-1.02-1.19-2.23-1.55-3.41-.37-1.19-.6-2.41-.79-3.63-.37-2.44-.31-4.91-.29-7.35.01-4.89.28-9.77.74-14.62h.17Z"/>
    <g>
      <path class="cls-1" d="M150.19,27.61c-2.9,2.31-2.33,11.78-1.51,15.6.73,3.43,3.94,10.47,6.88,11.93,6.85,3.39,24.81,1.11,29.69-5.14.57-.73.45-3.02,0-3.85-2.88-5.34-13.11-12.15-18.28-14.68-3.91-1.91-13.31-6.61-16.77-3.86Z"/>
      <path class="cls-1" d="M152.83,29.46l-2.69-.77c.02-.09,2.11-2.9,2.11-13.79,0-7.77-2.1-13.15-2.12-13.24l2.71-.73c.09.4,2.2,5.84,2.2,13.97,0,11.31-2.11,14.19-2.2,14.57Z"/>
      <path class="cls-1" d="M222.89,27.61c2.9,2.31,2.32,11.78,1.51,15.6-.73,3.43-3.94,10.47-6.88,11.93-6.85,3.39-24.81,1.11-29.69-5.14-.57-.73-.45-3.02,0-3.85,2.88-5.34,13.11-12.15,18.28-14.68,3.92-1.91,13.31-6.61,16.78-3.86Z"/>
      <path class="cls-1" d="M220.25,29.46l2.69-.77c-.03-.09-2.11-2.9-2.11-13.79,0-7.77,2.09-13.15,2.12-13.24l-2.7-.73c-.1.4-2.2,5.84-2.2,13.97,0,11.31,2.11,14.19,2.2,14.57Z"/>
      <rect class="cls-1" x="185.07" y="47.1" width="2.95" height="2.07"/>
    </g>
  </g>
</svg>